<svg width="146" height="93" viewBox="0 0 146 93" fill="none" xmlns="http://www.w3.org/2000/svg">
<g filter="url(#filter0_ddd_3016_56341)">
<path d="M126.862 16.3419H8.09684C6.73033 16.3419 5.62256 17.4434 5.62256 18.8022V81.5397C5.62256 82.8985 6.73033 84 8.09684 84H126.862C128.229 84 129.337 82.8985 129.337 81.5397V18.8022C129.337 17.4434 128.229 16.3419 126.862 16.3419Z" fill="black" style="fill:black;fill-opacity:1;"/>
</g>
<path d="M126.862 16.3419H8.09684C6.73033 16.3419 5.62256 17.4434 5.62256 18.8022V81.5397C5.62256 82.8985 6.73033 84 8.09684 84H126.862C128.229 84 129.337 82.8985 129.337 81.5397V18.8022C129.337 17.4434 128.229 16.3419 126.862 16.3419Z" fill="#FEFFFF" stroke="white" style="fill:#FEFFFF;fill:color(display-p3 0.9961 1.0000 1.0000);fill-opacity:1;stroke:white;stroke-opacity:1;" stroke-width="0.484266"/>
<path d="M119.555 52.4489H112.754C112.064 52.4489 111.505 53.0052 111.505 53.6915V58.6618C111.505 59.348 112.064 59.9044 112.754 59.9044H119.555C120.245 59.9044 120.805 59.348 120.805 58.6618V53.6915C120.805 53.0052 120.245 52.4489 119.555 52.4489Z" fill="#ACC2E1" style="fill:#ACC2E1;fill:color(display-p3 0.6745 0.7608 0.8824);fill-opacity:1;"/>
<path d="M81.5262 52.4501H64.1852C63.495 52.4501 62.9355 53.0064 62.9355 53.6926V58.6629C62.9355 59.3492 63.495 59.9055 64.1852 59.9055H81.5262C82.2164 59.9055 82.7759 59.3492 82.7759 58.6629V53.6926C82.7759 53.0064 82.2164 52.4501 81.5262 52.4501Z" fill="#ACC2E1" style="fill:#ACC2E1;fill:color(display-p3 0.6745 0.7608 0.8824);fill-opacity:1;"/>
<path d="M106.33 52.4495H88.9885C88.2984 52.4495 87.7389 53.0058 87.7389 53.6921V58.6624C87.7389 59.3486 88.2984 59.905 88.9885 59.905H106.33C107.02 59.905 107.579 59.3486 107.579 58.6624V53.6921C107.579 53.0058 107.02 52.4495 106.33 52.4495Z" fill="#ACC2E1" style="fill:#ACC2E1;fill:color(display-p3 0.6745 0.7608 0.8824);fill-opacity:1;"/>
<path d="M31.93 52.4498H14.5889C13.8988 52.4498 13.3393 53.0061 13.3393 53.6923V58.6626C13.3393 59.3489 13.8988 59.9052 14.5889 59.9052H31.93C32.6202 59.9052 33.1796 59.3489 33.1796 58.6626V53.6923C33.1796 53.0061 32.6202 52.4498 31.93 52.4498Z" fill="#ACC2E1" style="fill:#ACC2E1;fill:color(display-p3 0.6745 0.7608 0.8824);fill-opacity:1;"/>
<path d="M56.7371 52.45H39.396C38.7058 52.45 38.1464 53.0063 38.1464 53.6926V58.6629C38.1464 59.3491 38.7058 59.9055 39.396 59.9055H56.7371C57.4272 59.9055 57.9867 59.3491 57.9867 58.6629V53.6926C57.9867 53.0063 57.4272 52.45 56.7371 52.45Z" fill="#ACC2E1" style="fill:#ACC2E1;fill:color(display-p3 0.6745 0.7608 0.8824);fill-opacity:1;"/>
<path d="M119.551 36.2941H112.75C112.06 36.2941 111.501 36.8504 111.501 37.5367V42.507C111.501 43.1932 112.06 43.7496 112.75 43.7496H119.551C120.241 43.7496 120.801 43.1932 120.801 42.507V37.5367C120.801 36.8504 120.241 36.2941 119.551 36.2941Z" fill="#EDF4FF" style="fill:#EDF4FF;fill:color(display-p3 0.9294 0.9569 1.0000);fill-opacity:1;"/>
<path d="M81.5231 36.2947H64.1821C63.4919 36.2947 62.9324 36.8511 62.9324 37.5373V42.5076C62.9324 43.1939 63.4919 43.7502 64.1821 43.7502H81.5231C82.2133 43.7502 82.7728 43.1939 82.7728 42.5076V37.5373C82.7728 36.8511 82.2133 36.2947 81.5231 36.2947Z" fill="#EDF4FF" style="fill:#EDF4FF;fill:color(display-p3 0.9294 0.9569 1.0000);fill-opacity:1;"/>
<path d="M106.323 36.2952H88.982C88.2918 36.2952 87.7324 36.8515 87.7324 37.5377V42.508C87.7324 43.1943 88.2918 43.7506 88.982 43.7506H106.323C107.013 43.7506 107.573 43.1943 107.573 42.508V37.5377C107.573 36.8515 107.013 36.2952 106.323 36.2952Z" fill="#EDF4FF" style="fill:#EDF4FF;fill:color(display-p3 0.9294 0.9569 1.0000);fill-opacity:1;"/>
<path d="M31.9254 36.2945H14.5843C13.8941 36.2945 13.3347 36.8508 13.3347 37.5371V42.5074C13.3347 43.1936 13.8941 43.7499 14.5843 43.7499H31.9254C32.6155 43.7499 33.175 43.1936 33.175 42.5074V37.5371C33.175 36.8508 32.6155 36.2945 31.9254 36.2945Z" fill="#EDF4FF" style="fill:#EDF4FF;fill:color(display-p3 0.9294 0.9569 1.0000);fill-opacity:1;"/>
<path d="M56.724 36.2943H39.3829C38.6928 36.2943 38.1333 36.8506 38.1333 37.5369V42.5072C38.1333 43.1934 38.6928 43.7498 39.3829 43.7498H56.724C57.4141 43.7498 57.9736 43.1934 57.9736 42.5072V37.5369C57.9736 36.8506 57.4141 36.2943 56.724 36.2943Z" fill="#EDF4FF" style="fill:#EDF4FF;fill:color(display-p3 0.9294 0.9569 1.0000);fill-opacity:1;"/>
<path d="M119.551 68.6028H112.75C112.06 68.6028 111.5 69.1592 111.5 69.8454V74.8157C111.5 75.502 112.06 76.0583 112.75 76.0583H119.551C120.241 76.0583 120.8 75.502 120.8 74.8157V69.8454C120.8 69.1592 120.241 68.6028 119.551 68.6028Z" fill="#EDF4FF" style="fill:#EDF4FF;fill:color(display-p3 0.9294 0.9569 1.0000);fill-opacity:1;"/>
<path d="M81.5223 68.6028H64.1812C63.4911 68.6028 62.9316 69.1592 62.9316 69.8454V74.8157C62.9316 75.502 63.4911 76.0583 64.1812 76.0583H81.5223C82.2124 76.0583 82.7719 75.502 82.7719 74.8157V69.8454C82.7719 69.1592 82.2124 68.6028 81.5223 68.6028Z" fill="#EDF4FF" style="fill:#EDF4FF;fill:color(display-p3 0.9294 0.9569 1.0000);fill-opacity:1;"/>
<path d="M106.324 68.6029H88.9828C88.2926 68.6029 87.7332 69.1592 87.7332 69.8455V74.8158C87.7332 75.502 88.2926 76.0583 88.9828 76.0583H106.324C107.014 76.0583 107.573 75.502 107.573 74.8158V69.8455C107.573 69.1592 107.014 68.6029 106.324 68.6029Z" fill="#EDF4FF" style="fill:#EDF4FF;fill:color(display-p3 0.9294 0.9569 1.0000);fill-opacity:1;"/>
<path d="M31.9219 68.6022H14.5809C13.8907 68.6022 13.3312 69.1585 13.3312 69.8447V74.815C13.3312 75.5013 13.8907 76.0576 14.5809 76.0576H31.9219C32.6121 76.0576 33.1716 75.5013 33.1716 74.815V69.8447C33.1716 69.1585 32.6121 68.6022 31.9219 68.6022Z" fill="#EDF4FF" style="fill:#EDF4FF;fill:color(display-p3 0.9294 0.9569 1.0000);fill-opacity:1;"/>
<path d="M56.7245 68.6024H39.3834C38.6933 68.6024 38.1338 69.1587 38.1338 69.8449V74.8152C38.1338 75.5015 38.6933 76.0578 39.3834 76.0578H56.7245C57.4146 76.0578 57.9741 75.5015 57.9741 74.8152V69.8449C57.9741 69.1587 57.4146 68.6024 56.7245 68.6024Z" fill="#EDF4FF" style="fill:#EDF4FF;fill:color(display-p3 0.9294 0.9569 1.0000);fill-opacity:1;"/>
<path fill-rule="evenodd" clip-rule="evenodd" d="M7.49927 16H127.464C128.844 16 129.963 17.1126 129.963 18.4851V25.9406H5V18.4851C5 17.1126 6.11896 16 7.49927 16Z" fill="url(#paint0_linear_3016_56341)" style=""/>
<path d="M141.174 15.4161C141.174 9.57785 136.441 4.84503 130.603 4.84503C124.765 4.84503 120.032 9.57785 120.032 15.4161C120.032 21.2543 124.765 25.9871 130.603 25.9871C136.441 25.9871 141.174 21.2543 141.174 15.4161Z" fill="white" style="fill:white;fill-opacity:1;"/>
<path d="M130 0C121.164 0 114 7.16431 114 16.0001C114 24.8358 121.164 32.0001 130 32.0001C138.836 32.0001 146 24.8358 146 16.0001C146 7.16431 138.836 0 130 0ZM136.857 16.8572C136.857 17.0144 136.729 17.1429 136.571 17.1429H131.143V22.5715C131.143 22.7287 131.014 22.8572 130.857 22.8572H129.143C128.986 22.8572 128.857 22.7287 128.857 22.5715V17.1429H123.429C123.271 17.1429 123.143 17.0144 123.143 16.8572V15.1429C123.143 14.9858 123.271 14.8572 123.429 14.8572H128.857V9.42861C128.857 9.27147 128.986 9.14289 129.143 9.14289H130.857C131.014 9.14289 131.143 9.27147 131.143 9.42861V14.8572H136.571C136.729 14.8572 136.857 14.9858 136.857 15.1429V16.8572Z" fill="#ACC2E1" style="fill:#ACC2E1;fill:color(display-p3 0.6745 0.7608 0.8824);fill-opacity:1;"/>
<defs>
<filter id="filter0_ddd_3016_56341" x="0.673957" y="13.8676" width="133.611" height="78.7926" filterUnits="userSpaceOnUse" color-interpolation-filters="sRGB">
<feFlood flood-opacity="0" result="BackgroundImageFix"/>
<feColorMatrix in="SourceAlpha" type="matrix" values="0 0 0 0 0 0 0 0 0 0 0 0 0 0 0 0 0 0 127 0" result="hardAlpha"/>
<feOffset/>
<feGaussianBlur stdDeviation="0.309288"/>
<feComposite in2="hardAlpha" operator="out"/>
<feColorMatrix type="matrix" values="0 0 0 0 0.922639 0 0 0 0 0.922639 0 0 0 0 0.922639 0 0 0 0.378688 0"/>
<feBlend mode="normal" in2="BackgroundImageFix" result="effect1_dropShadow_3016_56341"/>
<feColorMatrix in="SourceAlpha" type="matrix" values="0 0 0 0 0 0 0 0 0 0 0 0 0 0 0 0 0 0 127 0" result="hardAlpha"/>
<feOffset dy="3.71145"/>
<feGaussianBlur stdDeviation="2.4743"/>
<feComposite in2="hardAlpha" operator="out"/>
<feColorMatrix type="matrix" values="0 0 0 0 0.798883 0 0 0 0 0.884408 0 0 0 0 0.965155 0 0 0 0.1 0"/>
<feBlend mode="normal" in2="effect1_dropShadow_3016_56341" result="effect2_dropShadow_3016_56341"/>
<feColorMatrix in="SourceAlpha" type="matrix" values="0 0 0 0 0 0 0 0 0 0 0 0 0 0 0 0 0 0 127 0" result="hardAlpha"/>
<feOffset dy="2.4743"/>
<feGaussianBlur stdDeviation="2.4743"/>
<feComposite in2="hardAlpha" operator="out"/>
<feColorMatrix type="matrix" values="0 0 0 0 0.306326 0 0 0 0 0.421001 0 0 0 0 0.529269 0 0 0 0.124181 0"/>
<feBlend mode="normal" in2="effect2_dropShadow_3016_56341" result="effect3_dropShadow_3016_56341"/>
<feBlend mode="normal" in="SourceGraphic" in2="effect3_dropShadow_3016_56341" result="shape"/>
</filter>
<linearGradient id="paint0_linear_3016_56341" x1="12689.9" y1="516.21" x2="83.6877" y2="-482.941" gradientUnits="userSpaceOnUse">
<stop stop-color="#F0F3F7" style="stop-color:#F0F3F7;stop-color:color(display-p3 0.9412 0.9529 0.9686);stop-opacity:1;"/>
<stop offset="1" stop-color="#E9EEF6" style="stop-color:#E9EEF6;stop-color:color(display-p3 0.9137 0.9333 0.9647);stop-opacity:1;"/>
</linearGradient>
</defs>
</svg>
