<svg width="146" height="93" viewBox="0 0 146 93" fill="none" xmlns="http://www.w3.org/2000/svg">
<g filter="url(#filter0_ddd_3016_56451)">
<path d="M126.862 16.3399H8.09687C6.73036 16.3399 5.62259 17.4414 5.62259 18.8002V81.5378C5.62259 82.8966 6.73036 83.9981 8.09687 83.9981H126.862C128.229 83.9981 129.337 82.8966 129.337 81.5378V18.8002C129.337 17.4414 128.229 16.3399 126.862 16.3399Z" fill="black" style="fill:black;fill-opacity:1;"/>
</g>
<path d="M126.862 16.3399H8.09687C6.73036 16.3399 5.62259 17.4414 5.62259 18.8002V81.5378C5.62259 82.8966 6.73036 83.9981 8.09687 83.9981H126.862C128.229 83.9981 129.337 82.8966 129.337 81.5378V18.8002C129.337 17.4414 128.229 16.3399 126.862 16.3399Z" fill="#FEFFFF" stroke="white" style="fill:#FEFFFF;fill:color(display-p3 0.9961 1.0000 1.0000);fill-opacity:1;stroke:white;stroke-opacity:1;" stroke-width="0.484266"/>
<path d="M119.555 52.447H112.754C112.064 52.447 111.505 53.0033 111.505 53.6895V58.6598C111.505 59.3461 112.064 59.9024 112.754 59.9024H119.555C120.245 59.9024 120.805 59.3461 120.805 58.6598V53.6895C120.805 53.0033 120.245 52.447 119.555 52.447Z" fill="#ACC2E1" style="fill:#ACC2E1;fill:color(display-p3 0.6745 0.7608 0.8824);fill-opacity:1;"/>
<path d="M81.5263 52.4481H64.1852C63.495 52.4481 62.9356 53.0044 62.9356 53.6907V58.661C62.9356 59.3472 63.495 59.9036 64.1852 59.9036H81.5263C82.2164 59.9036 82.7759 59.3472 82.7759 58.661V53.6907C82.7759 53.0044 82.2164 52.4481 81.5263 52.4481Z" fill="#ACC2E1" style="fill:#ACC2E1;fill:color(display-p3 0.6745 0.7608 0.8824);fill-opacity:1;"/>
<path d="M106.33 52.4476H88.9885C88.2983 52.4476 87.7389 53.0039 87.7389 53.6901V58.6604C87.7389 59.3467 88.2983 59.903 88.9885 59.903H106.33C107.02 59.903 107.579 59.3467 107.579 58.6604V53.6901C107.579 53.0039 107.02 52.4476 106.33 52.4476Z" fill="#ACC2E1" style="fill:#ACC2E1;fill:color(display-p3 0.6745 0.7608 0.8824);fill-opacity:1;"/>
<path d="M31.93 52.4478H14.5889C13.8988 52.4478 13.3393 53.0041 13.3393 53.6904V58.6607C13.3393 59.3469 13.8988 59.9033 14.5889 59.9033H31.93C32.6202 59.9033 33.1796 59.3469 33.1796 58.6607V53.6904C33.1796 53.0041 32.6202 52.4478 31.93 52.4478Z" fill="#ACC2E1" style="fill:#ACC2E1;fill:color(display-p3 0.6745 0.7608 0.8824);fill-opacity:1;"/>
<path d="M56.7371 52.4481H39.396C38.7059 52.4481 38.1464 53.0044 38.1464 53.6906V58.6609C38.1464 59.3472 38.7059 59.9035 39.396 59.9035H56.7371C57.4272 59.9035 57.9867 59.3472 57.9867 58.6609V53.6906C57.9867 53.0044 57.4272 52.4481 56.7371 52.4481Z" fill="#ACC2E1" style="fill:#ACC2E1;fill:color(display-p3 0.6745 0.7608 0.8824);fill-opacity:1;"/>
<path d="M119.551 36.2922H112.75C112.06 36.2922 111.501 36.8485 111.501 37.5347V42.505C111.501 43.1913 112.06 43.7476 112.75 43.7476H119.551C120.241 43.7476 120.801 43.1913 120.801 42.505V37.5347C120.801 36.8485 120.241 36.2922 119.551 36.2922Z" fill="#EDF4FF" style="fill:#EDF4FF;fill:color(display-p3 0.9294 0.9569 1.0000);fill-opacity:1;"/>
<path d="M81.5231 36.2928H64.182C63.4919 36.2928 62.9324 36.8491 62.9324 37.5354V42.5057C62.9324 43.1919 63.4919 43.7482 64.182 43.7482H81.5231C82.2133 43.7482 82.7727 43.1919 82.7727 42.5057V37.5354C82.7727 36.8491 82.2133 36.2928 81.5231 36.2928Z" fill="#EDF4FF" style="fill:#EDF4FF;fill:color(display-p3 0.9294 0.9569 1.0000);fill-opacity:1;"/>
<path d="M106.323 36.2932H88.982C88.2918 36.2932 87.7324 36.8495 87.7324 37.5358V42.5061C87.7324 43.1923 88.2918 43.7487 88.982 43.7487H106.323C107.013 43.7487 107.573 43.1923 107.573 42.5061V37.5358C107.573 36.8495 107.013 36.2932 106.323 36.2932Z" fill="#EDF4FF" style="fill:#EDF4FF;fill:color(display-p3 0.9294 0.9569 1.0000);fill-opacity:1;"/>
<path d="M31.9254 36.2925H14.5843C13.8941 36.2925 13.3346 36.8489 13.3346 37.5351V42.5054C13.3346 43.1917 13.8941 43.748 14.5843 43.748H31.9254C32.6155 43.748 33.175 43.1917 33.175 42.5054V37.5351C33.175 36.8489 32.6155 36.2925 31.9254 36.2925Z" fill="#EDF4FF" style="fill:#EDF4FF;fill:color(display-p3 0.9294 0.9569 1.0000);fill-opacity:1;"/>
<path d="M56.7239 36.2924H39.3829C38.6927 36.2924 38.1333 36.8487 38.1333 37.5349V42.5052C38.1333 43.1915 38.6927 43.7478 39.3829 43.7478H56.7239C57.4141 43.7478 57.9736 43.1915 57.9736 42.5052V37.5349C57.9736 36.8487 57.4141 36.2924 56.7239 36.2924Z" fill="#EDF4FF" style="fill:#EDF4FF;fill:color(display-p3 0.9294 0.9569 1.0000);fill-opacity:1;"/>
<path d="M119.551 68.6009H112.75C112.06 68.6009 111.5 69.1572 111.5 69.8435V74.8138C111.5 75.5 112.06 76.0563 112.75 76.0563H119.551C120.241 76.0563 120.8 75.5 120.8 74.8138V69.8435C120.8 69.1572 120.241 68.6009 119.551 68.6009Z" fill="#EDF4FF" style="fill:#EDF4FF;fill:color(display-p3 0.9294 0.9569 1.0000);fill-opacity:1;"/>
<path d="M81.5223 68.6009H64.1812C63.491 68.6009 62.9316 69.1572 62.9316 69.8435V74.8138C62.9316 75.5 63.491 76.0563 64.1812 76.0563H81.5223C82.2124 76.0563 82.7719 75.5 82.7719 74.8138V69.8435C82.7719 69.1572 82.2124 68.6009 81.5223 68.6009Z" fill="#EDF4FF" style="fill:#EDF4FF;fill:color(display-p3 0.9294 0.9569 1.0000);fill-opacity:1;"/>
<path d="M106.324 68.601H88.9828C88.2926 68.601 87.7332 69.1573 87.7332 69.8435V74.8138C87.7332 75.5001 88.2926 76.0564 88.9828 76.0564H106.324C107.014 76.0564 107.573 75.5001 107.573 74.8138V69.8435C107.573 69.1573 107.014 68.601 106.324 68.601Z" fill="#EDF4FF" style="fill:#EDF4FF;fill:color(display-p3 0.9294 0.9569 1.0000);fill-opacity:1;"/>
<path d="M31.922 68.6002H14.5809C13.8907 68.6002 13.3313 69.1565 13.3313 69.8428V74.8131C13.3313 75.4993 13.8907 76.0557 14.5809 76.0557H31.922C32.6121 76.0557 33.1716 75.4993 33.1716 74.8131V69.8428C33.1716 69.1565 32.6121 68.6002 31.922 68.6002Z" fill="#EDF4FF" style="fill:#EDF4FF;fill:color(display-p3 0.9294 0.9569 1.0000);fill-opacity:1;"/>
<path d="M56.7245 68.6004H39.3834C38.6933 68.6004 38.1338 69.1567 38.1338 69.843V74.8133C38.1338 75.4995 38.6933 76.0558 39.3834 76.0558H56.7245C57.4146 76.0558 57.9741 75.4995 57.9741 74.8133V69.843C57.9741 69.1567 57.4146 68.6004 56.7245 68.6004Z" fill="#EDF4FF" style="fill:#EDF4FF;fill:color(display-p3 0.9294 0.9569 1.0000);fill-opacity:1;"/>
<path fill-rule="evenodd" clip-rule="evenodd" d="M7.49927 15.998H127.464C128.844 15.998 129.963 17.1107 129.963 18.4832V25.9386H5V18.4832C5 17.1107 6.11896 15.998 7.49927 15.998Z" fill="url(#paint0_linear_3016_56451)" style=""/>
<path fill-rule="evenodd" clip-rule="evenodd" d="M130 31.9993C121.163 31.9993 114 24.8362 114 15.9996C114 7.16304 121.163 0 130 0C138.837 0 146 7.16304 146 15.9996C146 24.8362 138.837 31.9993 130 31.9993ZM128.4 21.5995V24.7994H131.6V21.5995H128.4ZM128.4 19.1996V7.19983H131.6V19.1996H128.4Z" fill="#ACC2E1" style="fill:#ACC2E1;fill:color(display-p3 0.6745 0.7608 0.8824);fill-opacity:1;"/>
<defs>
<filter id="filter0_ddd_3016_56451" x="0.673988" y="13.8656" width="133.611" height="78.7926" filterUnits="userSpaceOnUse" color-interpolation-filters="sRGB">
<feFlood flood-opacity="0" result="BackgroundImageFix"/>
<feColorMatrix in="SourceAlpha" type="matrix" values="0 0 0 0 0 0 0 0 0 0 0 0 0 0 0 0 0 0 127 0" result="hardAlpha"/>
<feOffset/>
<feGaussianBlur stdDeviation="0.309288"/>
<feComposite in2="hardAlpha" operator="out"/>
<feColorMatrix type="matrix" values="0 0 0 0 0.922639 0 0 0 0 0.922639 0 0 0 0 0.922639 0 0 0 0.378688 0"/>
<feBlend mode="normal" in2="BackgroundImageFix" result="effect1_dropShadow_3016_56451"/>
<feColorMatrix in="SourceAlpha" type="matrix" values="0 0 0 0 0 0 0 0 0 0 0 0 0 0 0 0 0 0 127 0" result="hardAlpha"/>
<feOffset dy="3.71145"/>
<feGaussianBlur stdDeviation="2.4743"/>
<feComposite in2="hardAlpha" operator="out"/>
<feColorMatrix type="matrix" values="0 0 0 0 0.798883 0 0 0 0 0.884408 0 0 0 0 0.965155 0 0 0 0.1 0"/>
<feBlend mode="normal" in2="effect1_dropShadow_3016_56451" result="effect2_dropShadow_3016_56451"/>
<feColorMatrix in="SourceAlpha" type="matrix" values="0 0 0 0 0 0 0 0 0 0 0 0 0 0 0 0 0 0 127 0" result="hardAlpha"/>
<feOffset dy="2.4743"/>
<feGaussianBlur stdDeviation="2.4743"/>
<feComposite in2="hardAlpha" operator="out"/>
<feColorMatrix type="matrix" values="0 0 0 0 0.306326 0 0 0 0 0.421001 0 0 0 0 0.529269 0 0 0 0.124181 0"/>
<feBlend mode="normal" in2="effect2_dropShadow_3016_56451" result="effect3_dropShadow_3016_56451"/>
<feBlend mode="normal" in="SourceGraphic" in2="effect3_dropShadow_3016_56451" result="shape"/>
</filter>
<linearGradient id="paint0_linear_3016_56451" x1="12689.9" y1="516.208" x2="83.6877" y2="-482.943" gradientUnits="userSpaceOnUse">
<stop stop-color="#F0F3F7" style="stop-color:#F0F3F7;stop-color:color(display-p3 0.9412 0.9529 0.9686);stop-opacity:1;"/>
<stop offset="1" stop-color="#E9EEF6" style="stop-color:#E9EEF6;stop-color:color(display-p3 0.9137 0.9333 0.9647);stop-opacity:1;"/>
</linearGradient>
</defs>
</svg>
