<svg width="56" height="62" viewBox="0 0 56 62" fill="none" xmlns="http://www.w3.org/2000/svg">
<ellipse cx="28" cy="30" rx="28" ry="6" fill="#F5F5F5" style="fill:#F5F5F5;fill:color(display-p3 0.9608 0.9608 0.9608);fill-opacity:1;"/>
<path d="M7.5 13.6802C7.5 13.3494 7.60936 13.0279 7.81106 12.7657L16.7959 1.08543C17.0798 0.716306 17.5191 0.5 17.9848 0.5H38.0152C38.4809 0.5 38.9202 0.716306 39.2041 1.08543L48.1889 12.7657C48.3906 13.0279 48.5 13.3494 48.5 13.6802V30C48.5 30.8284 47.8284 31.5 47 31.5H9C8.17157 31.5 7.5 30.8284 7.5 30V13.6802Z" fill="white" stroke="#E6E6E6" style="fill:white;fill-opacity:1;stroke:#E6E6E6;stroke:color(display-p3 0.9020 0.9020 0.9020);stroke-opacity:1;"/>
<path d="M7.5 14C7.5 13.1716 8.17157 12.5 9 12.5H17.3333C17.9777 12.5 18.5 13.0223 18.5 13.6667C18.5 15.7838 20.2162 17.5 22.3333 17.5H33.6667C35.7838 17.5 37.5 15.7838 37.5 13.6667C37.5 13.0223 38.0223 12.5 38.6667 12.5H47C47.8284 12.5 48.5 13.1716 48.5 14V30C48.5 30.8284 47.8284 31.5 47 31.5H9C8.17157 31.5 7.5 30.8284 7.5 30V14Z" fill="#FAFAFA" stroke="#E6E6E6" style="fill:#FAFAFA;fill:color(display-p3 0.9804 0.9804 0.9804);fill-opacity:1;stroke:#E6E6E6;stroke:color(display-p3 0.9020 0.9020 0.9020);stroke-opacity:1;"/>
<path d="M7.014 50.616V51.442C6.356 51.498 5.67 51.568 4.956 51.638V52.716H4.032V51.708C3.108 51.764 2.128 51.834 1.12 51.89L0.994 50.994C2.058 50.938 3.08 50.896 4.032 50.84V49.678H1.428L1.204 48.88C1.596 48.432 1.974 47.9 2.31 47.27H0.812V46.374H2.758C2.884 46.066 3.01 45.758 3.122 45.45L4.13 45.618C4.032 45.87 3.934 46.122 3.822 46.374H7.238V47.27H3.402C3.094 47.858 2.758 48.39 2.408 48.852H4.032V47.928H4.956V48.852H7.14V49.678H4.956V50.784C5.684 50.728 6.37 50.672 7.014 50.616ZM8.974 49.692C8.82 50.868 8.442 51.89 7.84 52.758L7.14 52.03C7.756 51.12 8.092 50.042 8.12 48.782V46.584C9.856 46.416 11.228 46.108 12.208 45.66L12.852 46.416C11.816 46.864 10.556 47.186 9.044 47.354V48.81H13.244V49.692H11.76V52.73H10.794V49.692H8.974ZM11.676 53.136V58.4H10.64V57.854H3.528V58.4H2.492V53.136H11.676ZM3.528 56.986H10.64V55.894H3.528V56.986ZM3.528 55.082H10.64V53.99H3.528V55.082ZM15.862 46.318H25.914V47.298H20.902V48.236C20.874 49.104 20.818 49.93 20.72 50.686H27.048V51.652H22.708V56.538C22.708 56.986 22.932 57.224 23.38 57.224H25.158C25.494 57.224 25.746 57.126 25.9 56.944C26.096 56.72 26.222 56.076 26.292 54.984L27.244 55.292C27.132 56.664 26.922 57.49 26.614 57.798C26.348 58.05 25.928 58.176 25.34 58.176H23.072C22.148 58.176 21.7 57.7 21.7 56.748V51.652H20.566C20.342 52.87 19.992 53.92 19.516 54.816C18.648 56.328 17.248 57.518 15.302 58.358L14.742 57.462C16.674 56.594 18.004 55.46 18.76 54.032C19.096 53.332 19.348 52.534 19.53 51.652H14.924V50.686H19.698C19.81 49.93 19.866 49.104 19.88 48.236V47.298H15.862V46.318ZM37.212 48.67L37.03 49.398C37.38 51.036 37.828 52.45 38.388 53.626C38.934 52.212 39.228 50.56 39.284 48.67H37.212ZM37.926 54.634C37.38 53.556 36.918 52.324 36.54 50.924C36.288 51.568 36.008 52.142 35.714 52.646L35.084 51.876C35.91 50.308 36.47 48.194 36.75 45.534L37.73 45.702C37.646 46.416 37.534 47.088 37.422 47.704H41.118V48.67H40.208C40.138 51.008 39.704 53.01 38.92 54.662C39.648 55.922 40.502 56.888 41.51 57.574L40.964 58.4C39.984 57.7 39.144 56.748 38.444 55.572C37.772 56.692 36.904 57.63 35.854 58.386L35.336 57.546C36.428 56.79 37.282 55.824 37.926 54.634ZM31.29 52.072L32.228 52.184C32.13 52.45 32.032 52.702 31.948 52.954H34.874V53.78C34.566 54.704 34.048 55.502 33.32 56.174C33.992 56.482 34.636 56.79 35.252 57.126L34.706 57.91C34.09 57.546 33.376 57.168 32.55 56.804C31.626 57.448 30.464 57.966 29.064 58.358L28.588 57.518C29.736 57.21 30.73 56.832 31.542 56.37C30.926 56.104 30.282 55.838 29.596 55.586C29.96 54.97 30.282 54.396 30.562 53.836H28.91V52.954H30.954C31.08 52.646 31.192 52.352 31.29 52.072ZM32.396 55.782C33.096 55.222 33.628 54.564 33.964 53.836H31.556C31.332 54.312 31.08 54.76 30.8 55.18C31.36 55.376 31.892 55.572 32.396 55.782ZM30.016 45.828C30.352 46.374 30.632 46.962 30.884 47.578L30.156 47.914C29.862 47.228 29.554 46.626 29.218 46.094L30.016 45.828ZM34.272 45.786L35 46.122C34.72 46.738 34.37 47.34 33.922 47.928L33.208 47.564C33.656 46.962 34.02 46.374 34.272 45.786ZM28.938 48.25H31.668V45.576H32.606V48.25H35.154V49.132H32.606V49.286C33.362 49.664 34.146 50.098 34.93 50.574L34.412 51.358C33.712 50.798 33.11 50.35 32.606 50.014V51.834H31.668V49.174C31.206 50.28 30.366 51.232 29.162 52.044L28.672 51.232C29.75 50.602 30.506 49.902 30.926 49.132H28.938V48.25ZM44.296 58.274H43.106L42.896 57.322C43.26 57.364 43.624 57.392 43.96 57.392C44.31 57.392 44.492 57.182 44.492 56.79V53.36C43.932 53.57 43.386 53.766 42.84 53.934L42.588 52.954C43.232 52.8 43.876 52.604 44.492 52.38V49.216H42.812V48.25H44.492V45.604H45.472V48.25H46.816V49.216H45.472V51.974C45.92 51.778 46.354 51.568 46.774 51.344V52.338C46.34 52.562 45.906 52.758 45.472 52.954V57.042C45.472 57.854 45.08 58.274 44.296 58.274ZM48.482 52.086C48.314 54.48 47.768 56.58 46.844 58.4L46.06 57.7C47.054 55.852 47.558 53.444 47.572 50.504V46.122H54.95V49.524H52.318V51.176H55.314V52.086H52.318V53.808H54.67V58.4H53.732V57.714H49.938V58.4H49V53.808H51.338V52.086H48.482ZM51.338 49.524H48.552V50.504C48.552 50.728 48.538 50.952 48.538 51.176H51.338V49.524ZM49.938 56.818H53.732V54.704H49.938V56.818ZM53.97 47.06H48.552V48.614H53.97V47.06Z" fill="black" fill-opacity="0.5" style="fill:black;fill-opacity:0.5;"/>
</svg>
