<svg width="20" height="20" viewBox="0 0 20 20" fill="currentColor" xmlns="http://www.w3.org/2000/svg">
<path fill-rule="evenodd" clip-rule="evenodd" d="M9.50006 7.42921C10.6956 7.42921 11.6648 6.46005 11.6648 5.26461C11.6648 4.06917 10.6956 3.1 9.50006 3.1C8.30448 3.1 7.33535 4.06917 7.33535 5.26461C7.33535 6.46005 8.30448 7.42921 9.50006 7.42921ZM9.50006 9.02921C11.5792 9.02921 13.2648 7.34374 13.2648 5.26461C13.2648 3.18547 11.5792 1.5 9.50006 1.5C7.42087 1.5 5.73535 3.18547 5.73535 5.26461C5.73535 7.34374 7.42087 9.02921 9.50006 9.02921ZM9.5 11.86H6.20576C4.4905 11.86 3.1 13.2505 3.1 14.9658V15.7186H9.5V17.3186H2.5C1.94772 17.3186 1.5 16.8709 1.5 16.3186V14.9658C1.5 12.3668 3.60684 10.26 6.20576 10.26H9.5V11.86Z" />
<path fill-rule="evenodd" clip-rule="evenodd" d="M12.31 12.7519L14.6071 11.4257L16.9042 12.7519V15.4044L14.6071 16.7306L12.31 15.4044V12.7519ZM14.3424 9.73096C14.5062 9.63639 14.708 9.63639 14.8718 9.73096L18.2395 11.6753C18.4033 11.7699 18.5042 11.9446 18.5042 12.1338V16.0225C18.5042 16.2116 18.4033 16.3864 18.2395 16.481L14.8718 18.4253C14.708 18.5199 14.5062 18.5199 14.3424 18.4253L10.9747 16.481C10.8109 16.3864 10.71 16.2116 10.71 16.0225V12.1338C10.71 11.9446 10.8109 11.7699 10.9747 11.6753L14.3424 9.73096ZM14.56 15.0782C15.1675 15.0782 15.66 14.5857 15.66 13.9781C15.66 13.3706 15.1675 12.8781 14.56 12.8781C13.9525 12.8781 13.46 13.3706 13.46 13.9781C13.46 14.5857 13.9525 15.0782 14.56 15.0782Z" />
</svg>
