<svg width="20" height="20" viewBox="0 0 20 20" fill="currentColor" xmlns="http://www.w3.org/2000/svg">
<path fill-rule="evenodd" clip-rule="evenodd" d="M3.58053 6.25838L10.0612 2.51678L16.5418 6.25838V13.7416L10.0612 17.4832L3.58053 13.7416V6.25838ZM9.50824 0.919217C9.8504 0.721671 10.272 0.72167 10.6141 0.919217L17.6489 4.98073C17.991 5.17828 18.2018 5.54336 18.2018 5.93846V14.0615C18.2018 14.4566 17.991 14.8217 17.6489 15.0192L10.6141 19.0807C10.272 19.2783 9.8504 19.2783 9.50824 19.0807L2.47347 15.0192C2.13131 14.8217 1.92053 14.4566 1.92053 14.0615V5.93846C1.92053 5.54336 2.13131 5.17828 2.47347 4.98074L9.50824 0.919217ZM12.7275 7.00203C13.0602 6.78585 13.5 7.02457 13.5 7.42127V8.1455C13.5 8.31406 13.4151 8.47127 13.2741 8.56367L11.0605 10.0147C10.9195 10.1071 10.8346 10.2643 10.8346 10.4329V12.9775C10.8346 13.2537 10.6107 13.4775 10.3346 13.4775H9.73459C9.45845 13.4775 9.23459 13.2537 9.23459 12.9775V10.4367C9.23459 10.266 9.14757 10.1072 9.00377 10.0153L6.73082 8.56327C6.58702 8.47141 6.5 8.31255 6.5 8.14191V7.43682C6.5 7.04102 6.93805 6.80214 7.27078 7.01649L9.72802 8.59947C9.89353 8.70609 10.1062 8.70566 10.2713 8.59838L12.7275 7.00203Z" fill="#7C878E" style="fill:#7C878E;fill:color(display-p3 0.4863 0.5294 0.5569);fill-opacity:1;"/>
</svg>
