<svg width="20" height="20" viewBox="0 0 20 20" fill="currentColor" xmlns="http://www.w3.org/2000/svg">
<path fill-rule="evenodd" clip-rule="evenodd" d="M11.9314 7.79397L8.78497 10.9404C8.27729 11.4481 7.45418 11.4481 6.9465 10.9404L5.30005 9.29397L6.43142 8.1626L7.86573 9.59691L10.8 6.6626L11.9314 7.79397Z"/>
<path fill-rule="evenodd" clip-rule="evenodd" d="M16.2 13.2283C16.2 14.2776 15.3494 15.1283 14.3 15.1283C13.2507 15.1283 12.4 14.2776 12.4 13.2283C12.4 12.1789 13.2507 11.3283 14.3 11.3283C15.3494 11.3283 16.2 12.1789 16.2 13.2283ZM16.1441 16.2037C15.6086 16.5362 14.9768 16.7283 14.3 16.7283C12.3671 16.7283 10.8 15.1613 10.8 13.2283C10.8 11.2953 12.3671 9.72827 14.3 9.72827C16.233 9.72827 17.8 11.2953 17.8 13.2283C17.8 13.905 17.608 14.5368 17.2754 15.0723L18.8406 16.6375L17.7092 17.7688L16.1441 16.2037Z" />
<path fill-rule="evenodd" clip-rule="evenodd" d="M14.4 8.49999V5.35406C14.4 5.1905 14.3004 5.04341 14.1486 4.98267L8.5 2.72325L2.85144 4.98267C2.69958 5.04341 2.6 5.1905 2.6 5.35406V11.9798C2.6 12.4257 2.81247 12.845 3.17209 13.1087L8.5 17.0159L10.3771 15.6394L11.5918 16.7326L9.09136 18.5663C8.73937 18.8245 8.26063 18.8245 7.90864 18.5663L2.22591 14.399C1.45528 13.8339 1 12.9354 1 11.9798V5.35406C1 4.53625 1.4979 3.80083 2.25722 3.49711L8.12861 1.14855C8.36702 1.05319 8.63298 1.05319 8.87139 1.14855L14.7428 3.49711C15.5021 3.80083 16 4.53625 16 5.35406V8.49999H14.4Z"/>
</svg>
