<svg width="20" height="20" viewBox="0 0 20 20" fill="currentColor" xmlns="http://www.w3.org/2000/svg">
<path fill-rule="evenodd" clip-rule="evenodd" d="M11.4 9.5C11.4 10.5493 10.5493 11.4 9.5 11.4C8.45066 11.4 7.6 10.5493 7.6 9.5C7.6 8.45066 8.45066 7.6 9.5 7.6C10.5493 7.6 11.4 8.45066 11.4 9.5ZM11.344 12.4754C10.8086 12.808 10.1767 13 9.5 13C7.567 13 6 11.433 6 9.5C6 7.567 7.567 6 9.5 6C11.433 6 13 7.567 13 9.5C13 10.1767 12.808 10.8086 12.4754 11.344L14.0406 12.9092L12.9092 14.0406L11.344 12.4754Z" />
<path fill-rule="evenodd" clip-rule="evenodd" d="M16.4 5.4073L13.044 2.6H3.6V17.4H16.4V5.4073ZM2.875 1C2.39175 1 2 1.39175 2 1.875V18.125C2 18.6082 2.39175 19 2.875 19H17.125C17.6082 19 18 18.6082 18 18.125V5.06855C18 4.80944 17.8852 4.56366 17.6864 4.39741L13.8687 1.20386C13.7113 1.07216 13.5125 1 13.3073 1H2.875Z" />
</svg>
