<svg width="20" height="20" viewBox="0 0 20 20" fill="currentColor" xmlns="http://www.w3.org/2000/svg">
<path fill-rule="evenodd" clip-rule="evenodd" d="M7.5 10.8H1.5V9.20001H7.5V10.8Z" />
<path fill-rule="evenodd" clip-rule="evenodd" d="M14.4631 11.6522C14.056 11.9138 13.5715 12.0656 13.0516 12.0656C11.6078 12.0656 10.4375 10.8952 10.4375 9.45151C10.4375 8.0078 11.6078 6.83743 13.0516 6.83743C14.4953 6.83743 15.6657 8.0078 15.6657 9.45151C15.6657 9.97141 15.5139 10.4559 15.2523 10.863L14.4631 11.6522ZM15.4118 12.9431C14.7384 13.3992 13.9261 13.6656 13.0516 13.6656C10.7242 13.6656 8.83746 11.7789 8.83746 9.45151C8.83746 7.12414 10.7242 5.23743 13.0516 5.23743C15.379 5.23743 17.2657 7.12414 17.2657 9.45151C17.2657 10.3261 16.9993 11.1384 16.5432 11.8118L18.4032 13.6717L17.2718 14.8031L15.4118 12.9431Z" />
<path fill-rule="evenodd" clip-rule="evenodd" d="M18.5 3.6H1.5V2H18.5V3.6Z" />
<path fill-rule="evenodd" clip-rule="evenodd" d="M18.5 18H1.5V16.4H18.5V18Z" />
</svg>
