<svg width="20" height="20" viewBox="0 0 20 20" fill="currentColor" xmlns="http://www.w3.org/2000/svg">
<path fill-rule="evenodd" clip-rule="evenodd" d="M16.4 4.90878L10 2.50878L3.6 4.90878V12.2219C3.6 12.6829 3.82696 13.1144 4.20686 13.3755L10 17.3583L15.7931 13.3755C16.173 13.1144 16.4 12.6829 16.4 12.2219V4.90878ZM2.64888 3.55665C2.25857 3.70302 2 4.07614 2 4.49298V12.2219C2 13.2098 2.48635 14.1343 3.30041 14.694L9.43347 18.9105C9.77472 19.1451 10.2253 19.1451 10.5665 18.9105L16.6996 14.694C17.5136 14.1343 18 13.2098 18 12.2219V4.49298C18 4.07614 17.7414 3.70302 17.3511 3.55665L10.3511 0.931652C10.1247 0.846757 9.87526 0.846757 9.64888 0.931652L2.64888 3.55665Z"/>
<path fill-rule="evenodd" clip-rule="evenodd" d="M8.5 9.54962L6.61458 11.8121L5.38542 10.7878L7.50131 8.24877C8.02105 7.62508 8.97895 7.62509 9.49869 8.24877L11 10.0503L12.8854 7.78783L14.1146 8.81213L11.9987 11.3512C11.479 11.9749 10.521 11.9749 10.0013 11.3512L8.5 9.54962Z" />
</svg>
