<svg width="20" height="20" viewBox="0 0 20 20" fill="currentColor" xmlns="http://www.w3.org/2000/svg">
<path fill-rule="evenodd" clip-rule="evenodd" d="M15.9 5.4073L12.544 2.6H4.1V17.4H15.9V5.4073ZM3.375 1C2.89175 1 2.5 1.39175 2.5 1.875V18.125C2.5 18.6082 2.89175 19 3.375 19H16.625C17.1082 19 17.5 18.6082 17.5 18.125V5.06855C17.5 4.80944 17.3852 4.56366 17.1864 4.39741L13.3687 1.20386C13.2113 1.07216 13.0125 1 12.8073 1H3.375Z" />
<path fill-rule="evenodd" clip-rule="evenodd" d="M9.50904 7.965C9.50904 7.69378 9.72894 7.47381 10.0003 7.47381C10.2716 7.47381 10.4915 7.69378 10.4915 7.965V8.4562H9.50904V7.965ZM8.03535 8.45625H7.42109C6.91239 8.45625 6.5 8.86864 6.5 9.37734V12.6933C6.5 13.202 6.91239 13.6144 7.42109 13.6144H12.5789C13.0876 13.6144 13.5 13.202 13.5 12.6933V9.37734C13.5 8.86864 13.0876 8.45625 12.5789 8.45625H11.9652V7.965C11.9652 6.87973 11.0854 6 10.0003 6C8.91513 6 8.03535 6.87973 8.03535 7.965V8.45625ZM7.97368 12.1406V9.93006H12.0263V12.1406H7.97368Z" />
</svg>
