<svg width="20" height="20" viewBox="0 0 20 20" fill="currentColor" xmlns="http://www.w3.org/2000/svg">
<path fill-rule="evenodd" clip-rule="evenodd" d="M13.5001 12.4271H6.49987C4.6774 12.4271 3.2 13.9045 3.2 15.7269V16.5269H16.8V15.7269C16.8 13.9045 15.3226 12.4271 13.5001 12.4271ZM6.49987 10.7271C3.73852 10.7271 1.5 12.9656 1.5 15.7269V17.1644C1.5 17.7512 1.9757 18.2269 2.5625 18.2269H17.4375C18.0243 18.2269 18.5 17.7512 18.5 17.1644V15.7269C18.5 12.9656 16.2615 10.7271 13.5001 10.7271H6.49987Z" />
<path fill-rule="evenodd" clip-rule="evenodd" d="M10.0001 7.52977C11.2704 7.52977 12.3001 6.50003 12.3001 5.22988C12.3001 3.95972 11.2704 2.92998 10.0001 2.92998C8.72976 2.92998 7.70006 3.95972 7.70006 5.22988C7.70006 6.50003 8.72976 7.52977 10.0001 7.52977ZM10.0001 9.22977C12.2092 9.22977 14.0001 7.43896 14.0001 5.22988C14.0001 3.02079 12.2092 1.22998 10.0001 1.22998C7.79092 1.22998 6.00006 3.02079 6.00006 5.22988C6.00006 7.43896 7.79092 9.22977 10.0001 9.22977Z" />
</svg>
